<?xml version="1.0" encoding="utf-8"?>
<!-- Generator: Adobe Illustrator 25.2.1, SVG Export Plug-In . SVG Version: 6.00 Build 0)  -->
<svg version="1.1" id="Layer_1" xmlns="http://www.w3.org/2000/svg" xmlns:xlink="http://www.w3.org/1999/xlink" x="0px" y="0px"
	 viewBox="0 0 80 19" style="enable-background:new 0 0 80 19;" xml:space="preserve">
<style type="text/css">
	.st0{fill:#FFFFFF;}
	.st1{fill:#6B6B6B;}
</style>
<g>
	<g>
		<g>
			<polygon class="st0" points="5.62,9.39 5.62,9.39 5.62,9.39 5.62,9.39 5.62,9.39 			"/>
		</g>
		<g>
			<polygon class="st0" points="6.26,8.88 6.26,8.88 6.26,8.87 6.26,8.88 			"/>
		</g>
		<g>
			<polygon class="st0" points="6.23,8.91 6.23,8.91 6.23,8.91 6.23,8.91 			"/>
		</g>
		<g>
			<polygon class="st0" points="6.09,9.03 6.09,9.03 6.09,9.03 6.09,9.03 			"/>
		</g>
		<g>
			<polygon class="st0" points="5.81,9.25 5.81,9.25 5.81,9.25 			"/>
		</g>
		<g>
			<polygon class="st0" points="5.87,9.2 5.87,9.2 5.87,9.2 5.87,9.2 			"/>
		</g>
		<g>
			<polygon class="st0" points="5.21,9.58 5.21,9.58 5.21,9.58 			"/>
		</g>
		<g>
			<polygon class="st0" points="5.72,9.32 5.71,9.31 5.71,9.32 			"/>
		</g>
		<g>
			<polygon class="st0" points="5.17,9.6 5.17,9.6 5.16,9.59 5.17,9.6 			"/>
		</g>
		<g>
			<polygon class="st0" points="5.32,9.53 5.32,9.53 5.32,9.54 			"/>
		</g>
		<g>
			<polygon class="st0" points="5.42,9.49 5.41,9.48 5.42,9.49 			"/>
		</g>
		<g>
			<polygon class="st0" points="5.86,9.22 5.85,9.22 5.86,9.22 			"/>
		</g>
		<g>
			<polygon class="st0" points="2.19,7.98 2.19,7.98 2.19,7.98 			"/>
		</g>
		<g>
			<polygon class="st0" points="4.99,7.64 4.99,7.64 4.99,7.64 4.99,7.64 			"/>
		</g>
		<g>
			<polygon class="st0" points="5.35,7.19 5.35,7.19 5.35,7.19 5.35,7.19 5.35,7.19 			"/>
		</g>
		<g>
			<polygon class="st0" points="2.16,7.94 2.16,7.94 2.16,7.94 2.16,7.93 2.15,7.94 2.16,7.94 			"/>
		</g>
		<g>
			<polygon class="st0" points="5.4,7.11 5.4,7.11 5.4,7.11 			"/>
		</g>
		<g>
			<polygon class="st0" points="5.51,6.78 5.51,6.78 5.51,6.78 5.51,6.78 			"/>
		</g>
		<g>
			<polygon class="st0" points="8.25,12.99 8.25,12.99 8.25,12.99 8.25,12.99 8.25,12.99 			"/>
		</g>
		<g>
			<polygon class="st0" points="6.29,8.85 6.29,8.85 6.29,8.84 6.29,8.85 			"/>
		</g>
		<g>
			<polygon class="st0" points="6.31,8.83 6.31,8.83 6.31,8.83 6.31,8.83 			"/>
		</g>
		<g>
			<polygon class="st0" points="8.2,11.89 8.21,11.9 8.21,11.89 			"/>
		</g>
		<g>
			<polygon class="st0" points="4.74,4.89 4.75,4.89 4.75,4.89 			"/>
		</g>
		<g>
			<polygon class="st0" points="2.16,7.97 2.16,7.97 2.16,7.97 2.16,7.97 			"/>
		</g>
		<g>
			<polygon class="st0" points="6.25,8.89 6.25,8.89 6.24,8.89 6.25,8.89 			"/>
		</g>
		<g>
			<polygon class="st0" points="5.93,9.16 5.93,9.16 5.93,9.16 			"/>
		</g>
		<g>
			<polygon class="st0" points="5.92,9.17 5.92,9.17 5.92,9.17 5.92,9.18 			"/>
		</g>
		<g>
			<polygon class="st0" points="5.89,9.19 5.89,9.19 5.89,9.19 			"/>
		</g>
		<g>
			<polygon class="st0" points="6.34,8.8 6.34,8.8 6.34,8.8 6.34,8.8 			"/>
		</g>
		<g>
			<polygon class="st0" points="6.28,8.86 6.28,8.86 6.28,8.86 6.28,8.86 			"/>
		</g>
		<g>
			<polygon class="st0" points="5.75,9.3 5.75,9.3 5.75,9.3 5.75,9.3 5.75,9.3 5.74,9.3 5.75,9.3 			"/>
		</g>
		<g>
			<polygon class="st0" points="6.06,9.06 6.06,9.06 6.06,9.06 6.06,9.07 			"/>
		</g>
		<g>
			<polygon class="st0" points="5.65,9.36 5.65,9.36 5.65,9.36 			"/>
		</g>
		<g>
			<polygon class="st0" points="5.5,9.44 5.5,9.44 5.49,9.44 5.5,9.44 			"/>
		</g>
		<g>
			<path class="st0" d="M13.32,3.56c0-0.11-0.01-0.23-0.01-0.34c0-0.08-0.03-0.14-0.07-0.2c-0.03-0.05-0.08-0.08-0.14-0.1
				c-0.06-0.02-0.19-0.04-0.29-0.04c-0.33,0-0.66,0-0.99,0c-3.51,0-7.02,0-10.53,0c-0.2,0-0.4-0.01-0.6,0.03
				C0.57,2.93,0.51,2.98,0.46,3.07C0.42,3.14,0.42,3.21,0.42,3.28c0,4.07,0,8.14,0,12.2c0,0.03,0,0.06,0,0.09
				c0.01,0.13,0.08,0.23,0.22,0.24c0.07,0.01,0.14,0.02,0.21,0.02c0.12,0,0.25,0,0.37,0c3.85,0,7.7,0,11.54,0
				c0.11,0,0.22-0.01,0.33-0.03c0.03-0.01,0.05-0.01,0.08-0.03c0.09-0.05,0.13-0.13,0.14-0.23c0.01-0.1,0.01-0.21,0.01-0.31
				c0-1.95,0-3.9,0-5.85C13.32,7.44,13.32,5.5,13.32,3.56z M2.1,4.92L2.1,4.92L2.1,4.92c0-0.01,0-0.02,0.02-0.03
				c0-0.01,0-0.02,0.02-0.03c0,0,0-0.01,0-0.01c0.02-0.1,0.1-0.16,0.18-0.21c0.06-0.04,0.13-0.04,0.2-0.04c0.44,0,0.87,0,1.31,0
				c0.05,0,0.1,0,0.15,0.01c0.15,0.03,0.3,0.04,0.45,0.1c0.12,0.05,0.23,0.1,0.34,0.17c0.01,0,0.01,0.01,0.01,0.02
				C4.9,4.97,5.02,5.07,5.12,5.18c0.13,0.15,0.23,0.31,0.31,0.49c0.06,0.14,0.1,0.29,0.13,0.45C5.59,6.26,5.6,6.41,5.58,6.56
				C5.57,6.63,5.56,6.7,5.54,6.76c0,0.06-0.01,0.12-0.03,0.17C5.48,6.99,5.47,7.05,5.44,7.1C5.38,7.24,5.29,7.37,5.2,7.49
				c-0.07,0.1-0.16,0.18-0.26,0.25C4.87,7.79,4.8,7.85,4.71,7.89c-0.09,0.05-0.18,0.1-0.27,0.13C4.35,8.06,4.25,8.1,4.15,8.09
				c0,0,0,0,0,0C4.13,8.11,4.11,8.11,4.08,8.11l-0.01,0l-0.01,0c0,0,0,0,0,0C4.06,8.13,4.04,8.12,4.02,8.13c0,0,0,0,0,0
				C3.98,8.15,3.93,8.14,3.88,8.14c-0.44,0-0.89,0-1.33,0h0c-0.04,0-0.08,0.01-0.11-0.02l-0.01,0l-0.01,0l0,0
				c-0.02,0-0.04,0-0.05-0.02c0,0,0,0,0,0h0v0v0c-0.02,0-0.04,0-0.05-0.02c-0.01,0-0.02,0-0.03,0h0l0,0c-0.01,0-0.02,0-0.03-0.02
				l0,0C2.26,8.07,2.26,8.07,2.25,8.06c0,0,0,0,0,0l0,0c0,0,0,0,0,0C2.25,8.06,2.24,8.05,2.24,8.05l0,0v0h0l0,0c0,0,0,0,0,0
				c-0.01,0-0.02,0-0.03-0.02l0,0C2.2,8.03,2.2,8.02,2.19,8.02c0,0,0-0.01,0-0.01c0,0,0,0,0,0C2.18,8,2.18,7.99,2.17,7.98
				C2.17,7.98,2.16,7.97,2.16,7.97v0C2.15,7.96,2.14,7.95,2.14,7.94c0,0,0-0.01,0-0.01c0,0,0,0,0,0C2.13,7.91,2.13,7.9,2.13,7.89
				c0-0.01,0-0.01,0-0.02c0,0,0,0,0,0C2.11,7.86,2.11,7.85,2.11,7.83C2.09,7.81,2.1,7.78,2.1,7.75c0-0.01,0-0.02,0-0.03c0,0,0,0,0,0
				C2.07,7.7,2.08,7.67,2.08,7.65c0-0.88,0-1.76,0-2.64c0-0.03-0.01-0.05,0.01-0.07C2.1,4.93,2.1,4.92,2.1,4.92z M11.56,14.01
				c-0.05,0.08-0.14,0.12-0.23,0.12c-0.21,0-0.42,0.01-0.62,0.02c-0.18,0.01-0.36,0.02-0.55,0.01c-0.15,0-0.3-0.01-0.45-0.04
				c-0.19-0.04-0.38-0.09-0.56-0.18c-0.21-0.1-0.39-0.24-0.55-0.4c-0.12-0.12-0.21-0.26-0.29-0.4c-0.02-0.03-0.03-0.06-0.05-0.09
				l0,0v0c0,0,0,0,0,0c0,0,0-0.01-0.01-0.01c-0.06-0.11-0.1-0.24-0.12-0.37c-0.02-0.11-0.03-0.22-0.03-0.33
				c0-0.06,0.01-0.11,0.02-0.17c0.01-0.11,0.05-0.21,0.07-0.32c0.01-0.04,0.02-0.07,0.05-0.1c0.09-0.24,0.21-0.45,0.39-0.62
				c0.17-0.18,0.38-0.31,0.62-0.4c0.1-0.04,0.2-0.04,0.3-0.09c0.01,0,0.02-0.01,0.03-0.01c0.12,0,0.24-0.02,0.36-0.02
				c0.42,0,0.83,0,1.25,0c0.09,0,0.19,0,0.27,0.06c0.05,0.03,0.1,0.07,0.12,0.13c0.06,0.08,0.07,0.18,0.07,0.27
				c0,0.44,0,0.87,0,1.31c0,0.44,0,0.88,0,1.31C11.65,13.82,11.62,13.92,11.56,14.01z M11.65,8.4c0,0.08-0.01,0.16-0.05,0.24
				c-0.04,0.09-0.1,0.15-0.18,0.19c-0.08,0.04-0.17,0.06-0.26,0.06c-0.11,0-0.22,0-0.33,0c-0.28,0-0.56,0-0.83,0
				c-0.12,0-0.24,0.01-0.36,0.03C9.56,8.93,9.49,8.93,9.41,8.94c-0.07,0-0.14,0.01-0.21,0.03C9.17,8.98,9.12,8.99,9.08,8.99
				c-0.01,0-0.02,0-0.02,0c-0.1,0.04-0.21,0.05-0.31,0.09C8.7,9.1,8.65,9.11,8.59,9.13c-0.1,0.03-0.2,0.08-0.29,0.12
				C8.13,9.34,7.97,9.44,7.82,9.55C7.67,9.66,7.54,9.78,7.41,9.9C7.4,9.91,7.38,9.92,7.37,9.92l0,0c-0.08,0.1-0.18,0.19-0.25,0.3
				l0,0c0,0,0,0,0,0c0,0.02-0.01,0.04-0.02,0.05c-0.07,0.08-0.12,0.18-0.18,0.27c0,0.01-0.01,0.01-0.02,0.01
				c0,0.04-0.01,0.06-0.05,0.08c0,0.07-0.04,0.12-0.07,0.17c-0.03,0.06-0.05,0.12-0.08,0.18c-0.04,0.07-0.05,0.15-0.09,0.22
				c-0.01,0.03-0.02,0.06-0.02,0.09c0,0.03-0.01,0.05-0.02,0.07c-0.02,0.03-0.03,0.06-0.03,0.1c0,0.01,0,0.03,0,0.04
				c-0.06,0.15-0.05,0.31-0.1,0.46c-0.01,0.02,0,0.05,0,0.07c0,0.2,0,0.39,0,0.59c0,0.13,0.04,0.26,0.05,0.39
				c0.01,0.1,0.05,0.2,0.06,0.3c0.01,0.07,0.04,0.14,0.06,0.2c0.03,0.1,0.05,0.2,0.08,0.3c0.02,0.05,0.01,0.11,0.01,0.16
				c0,0.05-0.04,0.08-0.07,0.11c-0.05,0.04-0.11,0.07-0.18,0.07c-0.77,0.03-1.53,0.01-2.3,0.01c0,0,0,0,0,0c0,0,0,0,0,0
				c-0.55,0-1.09,0-1.64,0c-0.02,0-0.05,0.01-0.07-0.01l0,0c-0.02,0-0.04,0-0.06,0l0,0l0,0c-0.02,0-0.04,0-0.05-0.02l0,0
				c-0.01-0.01-0.01-0.01-0.02-0.02l0,0c0-0.01-0.01-0.01-0.02-0.01c-0.01,0-0.01,0-0.02,0l0,0c-0.01,0-0.02,0-0.03-0.02l0,0
				c0-0.01-0.01-0.01-0.02-0.02l0,0c0-0.01-0.01-0.01-0.02-0.02l0,0c0-0.01-0.01-0.01-0.02-0.02l0,0c0-0.01-0.01-0.01-0.02-0.02l0,0
				c0,0,0,0,0,0c-0.07-0.06-0.09-0.14-0.11-0.23c0-0.02,0-0.05,0-0.07c0-1.16,0-2.31,0-3.47c0-0.19,0.1-0.31,0.28-0.37
				c0.09-0.03,0.19-0.04,0.28-0.04c0.14,0,0.28,0.01,0.42,0c0.19-0.01,0.38,0,0.57-0.02c0.15-0.01,0.3-0.02,0.45-0.04
				c0.05-0.01,0.09,0,0.14,0c0.1,0,0.21,0,0.31-0.04c0.03-0.01,0.05-0.01,0.08-0.01c0.05,0,0.1-0.01,0.15-0.03
				C4.78,9.7,4.8,9.69,4.82,9.69c0.05,0,0.09-0.01,0.13-0.04c0.04-0.02,0.08-0.03,0.12-0.02c0,0,0,0,0,0l0,0
				C5.1,9.61,5.13,9.59,5.16,9.59c0.01-0.01,0.03-0.01,0.05-0.02c0.01-0.01,0.02-0.01,0.03-0.02c0,0,0,0,0,0l0,0c0,0,0,0,0,0
				c0,0,0,0,0,0c0.02-0.03,0.05-0.03,0.08-0.03c0.01-0.01,0.02-0.01,0.03-0.02c0,0,0,0,0,0c0.01-0.02,0.04-0.03,0.06-0.03
				c0.01-0.01,0.02-0.01,0.03-0.02c0,0,0,0,0,0l0,0c0,0,0,0,0,0c0,0,0,0,0,0c0.01-0.02,0.03-0.03,0.05-0.03c0,0,0,0,0,0
				c0.02-0.02,0.04-0.03,0.06-0.03c0,0,0,0,0,0c0.01-0.03,0.04-0.03,0.06-0.03l0,0c0.01,0,0.01-0.01,0.02-0.01c0,0,0,0,0,0l0,0
				c0,0,0,0,0,0c0,0,0,0,0,0c0.01-0.01,0.01-0.01,0.02-0.02c0,0,0,0,0,0l0,0c0,0,0,0,0,0c0,0,0,0,0,0c0.01-0.01,0.02-0.02,0.03-0.02
				c0,0,0,0,0,0c0,0,0,0,0,0c0,0,0,0,0,0C5.69,9.32,5.7,9.31,5.71,9.31c0.01,0,0.01-0.01,0.02-0.01c0,0,0,0,0,0c0,0,0,0,0,0
				c0,0,0,0,0,0c0.01-0.01,0.01-0.01,0.02-0.02c0,0,0,0,0,0c0,0,0.01,0,0.01,0c0,0,0,0,0,0l0,0c0,0,0,0,0,0c0,0,0,0,0,0
				c0.01,0,0.01-0.01,0.02-0.01c0,0,0,0,0,0c0,0,0,0,0,0c0,0,0,0,0,0c0.01-0.01,0.02-0.02,0.03-0.02c0.01,0,0.01-0.01,0.02-0.01l0,0
				c0.01-0.01,0.02-0.02,0.03-0.02c0.01,0,0.01-0.01,0.02-0.01C5.88,9.2,5.88,9.19,5.89,9.19l0,0c0.01,0,0.01-0.01,0.02-0.01
				c0,0,0.01,0,0.01,0l0,0c0.01,0,0.01-0.01,0.02-0.01l0,0c0.01,0,0.01-0.01,0.02-0.01c0,0,0,0,0,0l0,0c0,0,0,0,0,0c0,0,0,0,0,0
				c0.01-0.01,0.01-0.01,0.02-0.02c0,0,0,0,0,0c0,0,0,0,0,0c0,0,0,0,0,0c0.01-0.01,0.02-0.02,0.03-0.02c0,0,0,0,0,0l0,0c0,0,0,0,0,0
				c0,0,0,0,0,0c0.02-0.02,0.03-0.04,0.06-0.05l0,0c0.01-0.01,0.01-0.01,0.02-0.02c0,0,0,0,0,0c0,0,0,0,0,0l0,0l0,0
				c0.01-0.01,0.01-0.01,0.02-0.02C6.09,9.03,6.1,9.02,6.1,9.02c0,0,0,0,0,0h0c0,0,0,0,0,0c0,0,0,0,0,0
				c0.04-0.04,0.07-0.09,0.12-0.11C6.23,8.9,6.24,8.9,6.24,8.89c0.01-0.01,0.01-0.01,0.02-0.02c0.01-0.01,0.01-0.01,0.02-0.02l0,0
				c0.01-0.01,0.01-0.01,0.02-0.02C6.3,8.84,6.3,8.83,6.31,8.83c0.01-0.01,0.01-0.01,0.02-0.02c0,0,0,0,0,0c0,0,0,0,0,0l0,0
				c0,0,0,0,0,0C6.33,8.81,6.33,8.8,6.34,8.8l0,0c0.01-0.01,0.01-0.01,0.02-0.02c0,0,0,0,0,0c0.02-0.05,0.06-0.08,0.1-0.11
				c0-0.01,0.01-0.01,0.01-0.02c0,0,0,0,0,0l0,0c0,0,0,0,0,0c0,0,0,0,0,0c0.01-0.01,0.01-0.01,0.02-0.02c0,0,0,0,0,0l0,0
				c0,0,0,0,0,0c0,0,0,0,0,0c0.03-0.08,0.1-0.13,0.15-0.2c0.14-0.2,0.26-0.4,0.36-0.62c0.05-0.11,0.1-0.22,0.14-0.33
				C7.15,7.4,7.18,7.31,7.2,7.22c0.04-0.14,0.05-0.29,0.09-0.43C7.3,6.77,7.29,6.74,7.29,6.71c0-0.19,0-0.37,0-0.56
				c0-0.06,0-0.12-0.02-0.17c-0.03-0.1-0.02-0.2-0.05-0.29C7.2,5.58,7.18,5.45,7.15,5.33C7.12,5.22,7.08,5.11,7.04,4.99
				C7.02,4.92,7.03,4.84,7.03,4.76c0-0.02,0.02-0.04,0.03-0.06c0.07-0.07,0.14-0.11,0.25-0.11c1.31,0,2.63,0,3.94,0
				c0.05,0,0.1-0.01,0.13,0.03c0.01,0,0.02,0,0.03,0.02c0.09,0.02,0.13,0.09,0.17,0.16c0.04,0.08,0.06,0.16,0.06,0.25
				C11.65,6.17,11.65,7.29,11.65,8.4z"/>
		</g>
		<g>
			<polygon class="st0" points="5.56,9.41 5.56,9.41 5.56,9.41 5.56,9.41 			"/>
		</g>
		<g>
			<polygon class="st0" points="5.62,9.38 5.62,9.37 5.62,9.38 			"/>
		</g>
		<g>
			<polygon class="st0" points="5.76,9.3 5.76,9.3 5.76,9.3 5.76,9.3 5.76,9.3 			"/>
		</g>
		<g>
			<polygon class="st0" points="5.86,9.24 5.86,9.24 5.86,9.24 5.86,9.24 5.86,9.24 			"/>
		</g>
		<g>
			<polygon class="st0" points="5.89,9.22 5.88,9.22 5.88,9.22 5.89,9.22 5.89,9.22 			"/>
		</g>
		<g>
			<polygon class="st0" points="5.92,9.19 5.92,9.19 5.92,9.19 5.92,9.19 5.92,9.19 5.92,9.19 5.92,9.19 			"/>
		</g>
		<g>
			<polygon class="st0" points="5.84,9.25 5.84,9.25 5.84,9.25 5.84,9.25 5.84,9.25 5.84,9.25 			"/>
		</g>
		<g>
			<polygon class="st0" points="5.67,9.36 5.67,9.36 5.67,9.36 			"/>
		</g>
		<g>
			<polygon class="st0" points="6.37,8.81 6.37,8.81 6.37,8.81 			"/>
		</g>
		<g>
			<polygon class="st0" points="5.98,9.14 5.98,9.14 5.98,9.14 			"/>
		</g>
		<g>
			<polygon class="st0" points="5.32,9.55 5.32,9.55 5.32,9.55 5.32,9.55 			"/>
		</g>
		<g>
			<polygon class="st0" points="5.65,9.38 5.65,9.38 5.65,9.38 5.65,9.38 5.65,9.38 			"/>
		</g>
		<g>
			<polygon class="st0" points="5.42,9.5 5.42,9.5 5.42,9.5 5.42,9.5 5.42,9.5 			"/>
		</g>
		<g>
			<polygon class="st0" points="5.17,9.61 5.17,9.61 5.17,9.61 5.17,9.61 5.17,9.61 			"/>
		</g>
	</g>
	<g>
		<path class="st0" d="M15.38,15.84V2.88h3.05c0.95,0,1.65,0.03,2.1,0.09c0.45,0.06,0.93,0.26,1.45,0.61
			c0.51,0.35,0.92,0.81,1.23,1.39c0.3,0.57,0.46,1.19,0.46,1.86c0,0.65-0.13,1.27-0.39,1.84c-0.26,0.57-0.61,1.04-1.05,1.39
			c-0.44,0.36-0.91,0.59-1.39,0.7c-0.49,0.11-1.34,0.17-2.57,0.17h-0.47v4.91H15.38z M18.22,8.6h0.47c0.32,0,0.57-0.01,0.75-0.02
			c0.19-0.01,0.43-0.06,0.72-0.16c0.29-0.09,0.55-0.28,0.76-0.57c0.22-0.29,0.32-0.62,0.32-0.99c0-0.39-0.11-0.71-0.34-0.98
			c-0.23-0.27-0.47-0.44-0.74-0.51c-0.26-0.07-0.51-0.11-0.75-0.13c-0.24-0.02-0.5-0.03-0.78-0.03h-0.42h-0.44V8.6H18.22z"/>
		<path class="st0" d="M23.27,2.88h3.75c0.96,0,1.67,0.07,2.12,0.22c0.46,0.15,1.03,0.51,1.72,1.08c0.69,0.57,1.03,1.51,1.03,2.81
			c0,0.47-0.1,0.97-0.3,1.5c-0.2,0.53-0.45,0.97-0.76,1.31c-0.31,0.34-0.65,0.61-1.03,0.81s-0.8,0.35-1.27,0.46l3.51,4.79h-2.96
			l-3.4-4.96v4.96h-2.4V2.88z M26.99,9.05C27.5,9.05,27.9,9,28.2,8.9c0.29-0.1,0.58-0.28,0.87-0.55c0.29-0.27,0.43-0.68,0.43-1.24
			c0-0.63-0.18-1.08-0.53-1.34c-0.36-0.26-0.67-0.42-0.95-0.47C27.74,5.24,27.4,5.21,27,5.21h-1.33v3.84H26.99z"/>
		<path class="st0" d="M44.36,9.41c0,1.87-0.66,3.46-1.98,4.76c-1.32,1.31-2.91,1.96-4.77,1.96s-3.45-0.65-4.78-1.95
			s-1.99-2.89-1.99-4.75c0-1.89,0.65-3.5,1.96-4.82c1.31-1.32,2.9-1.98,4.79-1.98c1.87,0,3.47,0.65,4.79,1.96S44.36,7.51,44.36,9.41
			z M37.58,4.97l0.02,0.05c-1.22,0-2.24,0.43-3.09,1.28c-0.84,0.85-1.26,1.9-1.26,3.13c0,1.19,0.43,2.22,1.28,3.08
			c0.85,0.86,1.88,1.3,3.07,1.3c1.19,0,2.22-0.43,3.08-1.29c0.86-0.86,1.29-1.89,1.29-3.11c0-1.24-0.43-2.29-1.28-3.15
			C39.83,5.4,38.79,4.97,37.58,4.97z"/>
		<path class="st0" d="M44.31,2.88h2.72c1.16,0,2.18,0.1,3.06,0.31c0.88,0.2,1.67,0.6,2.38,1.19s1.25,1.34,1.64,2.24
			c0.39,0.91,0.59,1.84,0.59,2.8c0,0.92-0.19,1.82-0.58,2.7c-0.39,0.88-0.94,1.62-1.65,2.23c-0.71,0.61-1.49,1.01-2.33,1.2
			c-0.84,0.19-1.86,0.29-3.05,0.29h-2.77V2.88z M47.01,13.51c1.05,0,1.83-0.07,2.34-0.21c0.51-0.14,0.99-0.38,1.45-0.73
			c0.46-0.34,0.82-0.79,1.09-1.35c0.27-0.56,0.4-1.15,0.4-1.8c0-0.68-0.15-1.33-0.45-1.95c-0.3-0.62-0.71-1.1-1.23-1.46
			c-0.52-0.35-1.06-0.57-1.62-0.67c-0.56-0.09-1.26-0.14-2.1-0.14h-0.18v8.29H47.01z"/>
		<path class="st0" d="M54.65,2.88h2.4v12.96h-2.4V2.88z"/>
		<path class="st0" d="M67.26,6.69c-0.39-0.54-0.88-0.96-1.48-1.26c-0.6-0.3-1.24-0.46-1.92-0.46c-1.15,0-2.04,0.29-2.7,0.86
			c-0.65,0.57-1.12,1.15-1.38,1.73c-0.27,0.58-0.4,1.18-0.4,1.78c0,0.55,0.11,1.09,0.32,1.62c0.22,0.53,0.65,1.14,1.31,1.82
			c0.65,0.68,1.64,1.02,2.96,1.02c0.76,0,1.49-0.22,2.2-0.64c0.71-0.43,1.24-0.99,1.59-1.67h-5.42V9.23h8.45v0.28
			c0,1.87-0.68,3.44-2.03,4.71c-1.36,1.28-2.97,1.91-4.86,1.91c-1.88,0-3.51-0.65-4.87-1.94c-1.37-1.3-2.05-2.88-2.05-4.76
			c0-1.89,0.68-3.5,2.03-4.82c1.36-1.32,2.97-1.98,4.86-1.98c1.34,0,2.61,0.37,3.79,1.1c1.18,0.74,2.01,1.72,2.49,2.95H67.26z"/>
		<path class="st0" d="M70.44,2.88h2.4v12.96h-2.4V2.88z"/>
		<path class="st0" d="M74.73,5.21h-2.38V2.88h7.21v2.33h-2.42v10.63h-2.4V5.21z"/>
	</g>
</g>
</svg>
